# xmcd
#
# Track frame offsets: 
#        150
#        7162
#        17466
#        30132
#        40225
#        47376
#        58748
#        69680
#        81828
#        92332
#
# Disc length: 1393 seconds
#
# Revision: 0
# Processed by: cddbd v1.4PL0 Copyright (c) Steve Scherf et al.
# Submitted via: ExactAudioCopy v0.90b3
#
DISCID=6c056f0a
DTITLE=Faron Young - Good Old Country
DYEAR=1900
DGENRE=Country
TTITLE0=Alone With You
TTITLE1=Live Fast, Love Hard, Die Young
TTITLE2=It's Four In The Morning
TTITLE3=Hello Walls
TTITLE4=Goin' Steady
TTITLE5=Your Cheatin' Heart
TTITLE6=Wine Me Up
TTITLE7=Sweet Dreams (Of You)
TTITLE8=If You Ain't Lovin'
TTITLE9=Crying Time
EXTD=
EXTT0=
EXTT1=
EXTT2=
EXTT3=
EXTT4=
EXTT5=
EXTT6=
EXTT7=
EXTT8=
EXTT9=
PLAYORDER=
